<svg xmlns="http://www.w3.org/2000/svg" xmlns:xlink="http://www.w3.org/1999/xlink" width="1587" zoomAndPan="magnify" viewBox="0 0 1190.25 1683.749945" height="2245" preserveAspectRatio="xMidYMid meet" version="1.0"><defs><clipPath id="053c127f39"><path d="M 21 88.96875 L 1168 88.96875 L 1168 1593.152344 L 21 1593.152344 Z M 21 88.96875 " clip-rule="nonzero"/></clipPath></defs><g clip-path="url(#053c127f39)"><path fill="#ff0000" d="M 1024.207031 590.363281 L 952.574219 590.363281 L 952.574219 447.109375 C 952.574219 249.417969 792.109375 88.96875 594.398438 88.96875 C 396.6875 88.96875 236.222656 249.417969 236.222656 447.109375 L 236.222656 590.363281 L 164.589844 590.363281 C 85.433594 590.363281 21.320312 654.472656 21.320312 733.621094 L 21.320312 1449.898438 C 21.320312 1529.046875 85.433594 1593.152344 164.589844 1593.152344 L 1024.207031 1593.152344 C 1103.363281 1593.152344 1167.476562 1529.046875 1167.476562 1449.898438 L 1167.476562 733.621094 C 1167.476562 654.472656 1103.363281 590.363281 1024.207031 590.363281 Z M 594.398438 225.0625 C 716.894531 225.0625 816.464844 324.625 816.464844 447.109375 L 816.464844 590.363281 L 379.492188 590.363281 L 379.492188 447.109375 L 372.332031 447.109375 C 372.332031 324.625 471.902344 225.0625 594.398438 225.0625 Z M 1024.207031 1449.898438 L 164.589844 1449.898438 L 164.589844 733.621094 L 1024.207031 733.621094 Z M 594.398438 1235.015625 C 673.554688 1235.015625 737.667969 1170.90625 737.667969 1091.757812 C 737.667969 1012.609375 673.554688 948.503906 594.398438 948.503906 C 515.242188 948.503906 451.128906 1012.609375 451.128906 1091.757812 C 451.128906 1170.90625 515.242188 1235.015625 594.398438 1235.015625 Z M 594.398438 1235.015625 " fill-opacity="1" fill-rule="nonzero"/></g></svg>